 <svg version="1.0" xmlns="http://www.w3.org/2000/svg"  width="180.000000pt" height="53.000000pt" viewBox="0 0 180.000000 53.000000"  preserveAspectRatio="xMidYMid meet">  <g transform="translate(0.000000,53.000000) scale(0.100000,-0.100000)" fill="#ff9900" stroke="none"> <path d="M924 367 c-2 -7 -3 -60 -2 -118 3 -90 5 -104 21 -107 15 -3 17 8 17 117 0 102 -2 121 -15 121 -9 0 -18 -6 -21 -13z"/> <path d="M95 360 c-11 -18 5 -30 41 -30 l34 0 2 -67 c1 -38 2 -79 3 -93 0 -18 6 -25 20 -25 19 0 20 6 17 92 l-4 92 44 3 c30 2 43 7 43 18 0 12 -19 16 -97 18 -59 2 -99 -1 -103 -8z m107 -22 c-9 -9 -15 -9 -24 0 -9 9 -7 12 12 12 19 0 21 -3 12 -12z"/> <path d="M310 219 c0 -71 2 -80 18 -77 13 3 17 13 17 44 0 39 17 74 36 74 5 0 9 -7 9 -16 0 -28 35 -11 38 19 4 33 -19 45 -59 30 -16 -7 -29 -7 -29 -2 0 5 -7 9 -15 9 -12 0 -15 -16 -15 -81z m40 47 c0 -3 -4 -8 -10 -11 -5 -3 -10 -1 -10 4 0 6 5 11 10 11 6 0 10 -2 10 -4z"/> <path d="M473 276 c-22 -19 -28 -32 -28 -66 0 -54 20 -69 90 -67 l52 1 -4 66 c-6 69 -19 90 -59 90 -13 0 -35 -11 -51 -24z m65 -53 c-3 -33 -6 -38 -28 -38 -31 0 -39 29 -14 56 29 32 46 24 42 -18z"/> <path d="M606 291 c-9 -14 49 -146 65 -149 18 -3 83 144 68 154 -19 12 -38 -6 -50 -46 -14 -45 -21 -43 -39 13 -11 35 -32 48 -44 28z m74 -101 c0 -5 -4 -10 -10 -10 -5 0 -10 5 -10 10 0 6 5 10 10 10 6 0 10 -4 10 -10z"/> <path d="M771 274 c-29 -37 -28 -98 1 -118 40 -28 118 -15 118 20 0 12 -8 13 -35 8 -42 -8 -85 2 -85 19 1 26 36 59 61 55 23 -3 23 -4 -8 -21 -31 -17 -45 -47 -23 -47 21 0 70 31 80 50 8 15 6 24 -10 40 -29 29 -74 26 -99 -6z"/> <path d="M1120 225 c0 -30 0 -58 -1 -62 0 -4 4 -9 10 -11 6 -2 11 7 11 20 0 17 8 27 30 35 51 19 34 73 -22 73 -27 0 -28 -1 -28 -55z m55 15 c-3 -5 -13 -10 -21 -10 -8 0 -14 5 -14 10 0 6 9 10 21 10 11 0 17 -4 14 -10z"/> <path d="M1220 225 c0 -30 0 -58 -1 -62 0 -4 4 -9 10 -11 7 -2 11 20 11 62 0 37 -4 66 -10 66 -5 0 -10 -25 -10 -55z"/> <path d="M1271 226 c-7 -8 -11 -27 -9 -43 3 -24 8 -28 40 -31 l38 -3 -3 43 c-3 38 -6 43 -28 46 -14 2 -31 -4 -38 -12z m43 -31 c-6 -16 -34 -21 -34 -7 0 13 11 22 26 22 8 0 11 -6 8 -15z"/> <path d="M1360 204 c0 -19 0 -37 -1 -41 0 -4 4 -9 10 -11 5 -2 11 9 13 24 4 39 28 43 28 5 0 -17 5 -31 11 -31 6 0 9 17 7 43 -3 40 -5 42 -35 44 -31 1 -33 -1 -33 -33z"/> <path d="M1450 204 c0 -19 0 -37 -1 -41 0 -4 4 -9 9 -11 5 -1 12 11 15 28 8 39 27 39 27 0 0 -16 5 -30 11 -30 6 0 9 17 7 43 -3 40 -5 42 -35 44 -31 1 -33 -1 -33 -33z"/> <path d="M1552 231 c-8 -5 -12 -22 -10 -42 3 -31 6 -34 37 -34 42 0 54 22 15 27 -31 3 -46 28 -17 28 15 0 16 -2 3 -10 -12 -8 -11 -10 6 -10 28 0 35 9 23 31 -10 20 -35 24 -57 10z"/> <path d="M1630 193 c0 -31 4 -43 13 -40 6 2 11 13 9 25 -4 25 17 40 29 21 11 -19 32 2 23 24 -4 11 -17 16 -40 15 -33 -1 -34 -2 -34 -45z"/> </g> </svg> 